/* XPM */
static char *baebd936c21a4bcbebdb95610d0d1e43PzetlJPBI8G6uCIH[] = {
/* columns rows colors chars-per-pixel */
"64 64 114 2 ",
"   c None",
".  c #5BB3FF",
"X  c #5DB2FF",
"o  c #5CB3FF",
"O  c #5DB3FF",
"+  c #5FB2FF",
"@  c #5EB3FF",
"#  c #5CB4FF",
"$  c #5DB4FF",
"%  c #5CB5FF",
"&  c #5DB5FF",
"*  c #5EB4FF",
"=  c #5FB4FF",
"-  c #5EB5FF",
";  c #5FB5FF",
":  c #5DB6FF",
">  c #60B5FF",
",  c #61B6FF",
"<  c #62B6FF",
"1  c #63B7FF",
"2  c #64B7FF",
"3  c #65B8FF",
"4  c #66B8FF",
"5  c #69BAFF",
"6  c #6CBBFF",
"7  c #6EBCFF",
"8  c #70BDFF",
"9  c #71BDFF",
"0  c #78C0FF",
"q  c #78C1FF",
"w  c #7BC2FF",
"e  c #7DC3FF",
"r  c #7EC3FF",
"t  c #7FC4FF",
"y  c #80C4FF",
"u  c #81C4FF",
"i  c #83C6FF",
"p  c #86C7FF",
"a  c #88C8FF",
"s  c #8AC9FF",
"d  c #8BC9FF",
"f  c #8DCAFF",
"g  c #8FCBFF",
"h  c #90CCFF",
"j  c #92CDFF",
"k  c #96CEFF",
"l  c #97CFFF",
"z  c #98CFFF",
"x  c #99D0FF",
"c  c #9BD1FF",
"v  c #9CD1FF",
"b  c #9DD1FF",
"n  c #9ED2FF",
"m  c #9FD3FF",
"M  c #A0D3FF",
"N  c #A4D5FF",
"B  c #A5D5FF",
"V  c #A5D6FF",
"C  c #A6D6FF",
"Z  c #A7D6FF",
"A  c #A8D7FF",
"S  c #A9D7FF",
"D  c #ABD8FF",
"F  c #B0DAFF",
"G  c #B1DBFF",
"H  c #B2DBFF",
"J  c #B3DCFF",
"K  c #B4DCFF",
"L  c #B6DDFF",
"P  c #B7DDFF",
"I  c #B7DEFF",
"U  c #B8DEFF",
"Y  c #BEE1FF",
"T  c #C1E2FF",
"R  c #C2E3FF",
"E  c #C4E4FF",
"W  c #C5E4FF",
"Q  c #C6E5FF",
"!  c #C8E6FF",
"~  c #C9E6FF",
"^  c #CAE6FF",
"/  c #CDE8FF",
"(  c #CFE9FF",
")  c #D1EAFF",
"_  c #D3EAFF",
"`  c #D3EBFF",
"'  c #D4EBFF",
"]  c #D8EDFF",
"[  c #DBEEFF",
"{  c #DBEFFF",
"}  c #DCEFFF",
"|  c #DDEFFF",
" . c #DFF0FF",
".. c #E0F1FF",
"X. c #E2F2FF",
"o. c #E4F2FF",
"O. c #E4F3FF",
"+. c #E5F3FF",
"@. c #E8F4FF",
"#. c #E9F5FF",
"$. c #EDF7FF",
"%. c #EEF7FF",
"&. c #F2F9FF",
"*. c #F4FAFF",
"=. c #F7FBFF",
"-. c #F8FCFF",
";. c #F9FCFF",
":. c #FAFDFF",
">. c #FBFDFF",
",. c #FCFEFF",
"<. c #FDFEFF",
"1. c #FEFEFF",
"2. c #FEFFFF",
"3. c white",
/* pixels */
"                                                                                                                                ",
"                                                                                                                                ",
"                                                                                                                                ",
"                                                    * o * * * * * * * * * *                                                     ",
"                                            % * * * * % .             % * * * * % *                                             ",
"                                        * * * *     * o * * % * * * * o % o     * * * *                                         ",
"                                    * * *     o * % o % * * * * * * * % * * * * *     * * *                                     ",
"                                o % *   o * o % * * * * % o % o o % * o % o % * * * * *   o % *                                 ",
"                              * * * o * % o * * * o * o * o * o * o * * o * * * * * * % o *   * *                               ",
"                          * * *   % * * * * o % * % * % * % * % * % o % % * % o % o * o % * *   o * *                           ",
"                        * * %   * * * o % * % * % o * * % o * * % * * * o * o % o % * % o * o % * o * %                         ",
"                      * %   * * o % * % o * o * * * o % * * o % o * o % % * * * * * * o % * * * * .   * *                       ",
"                    * *   % o * * * % * * o * o % * % o * * % * * * o * * * o * * % o * * % o * * o *   * *                     ",
"                  % *   % * % * o % o * * % * % o * V J J k o * o % v H L v % * * o % * * o % * * % * %   o *                   ",
"                  * o * * * o * * * * o % o * * * * X.2.2.^ % * * o ` 2.2.{ * % * * * * * * * * o % * % % o *                   ",
"                * * * o % o % * o % * % * * o % * * +.2.2.^ o * * % ` 2.2.| * * % o % o % o % o * * * o *   * *                 ",
"              * *   * o * * % o * * % o * o * * * * X.2.2.^ * * * o ' 2.2.{ * * o % o % o % o % * * * % * %   * *               ",
"              *   * * % o % * * o % * * * % o % * * O.2.2.| V H U S +.2.2.{ * o * * * * * * * * % o * o * o *   *               ",
"            * * . * % * * o * o * o * o * % * * o q $.2.2.2.2.2.2.2.2.2.2.*.a o * % o * * % o * o % * % * % * * * *             ",
"            *   * * o * * % * % * % * % % * * 6 / 2.2.2.2.2.2.2.2.2.2.2.2.2.2.| y o % * * o % * * * * o * o % *   *             ",
"          * * % % o * o % * % * % * * * o * f &.2.2.2.2.2.2.2.2.2.2.2.2.2.2.2.2.2.V o * o * * * * % o * * % o * * * *           ",
"          *   * * * * % o * o * o * * * * c 2.2.2.2.2.2.2.2.X.` ' | >.2.2.2.2.2.2.2.E > % * % o * o % * * o % * %   *           ",
"        % o   * % o % * * * % o * * o * h 2.2.2.2.2.2.#.v 2 o * % * * p ` 2.2.2.2.2.2.U * * * o * * * * * * * * *   * *         ",
"        * % * * * * o * o % * * o % o 9 =.2.2.2.2.2.E 2 * * % * o * * * * v 2.2.2.2.2.2.p % * % % o % o % o % o * * * *         ",
"        *   * o * o * * % o * o * o * ( 2.2.2.2.2.E > * o * * * * * % o * o N 2.2.2.2.2.X.o * * % * % * % * % * % *   *         ",
"        *   * % * % o % * * * % * % y 2.2.2.2.2.#.> * * % * % o o % * * * % * | 2.2.2.2.2.y o % o * o * o * o * * %   *         ",
"      * o * o % % * * * % o % * * * E 2.2.2.2.2.c o * * o * * * * o * o % * * c 2.2.2.2.2.H * * * * % o * * % o % o * % *       ",
"      o % * * * o * o % * * o * * > =.2.2.2.2.>.> % * % % * * * * % * % o * * e 2.2.2.2.2.| * * o % * * o % * * * % * * %       ",
"      * o * o * * * % o * * % o * t 2.2.2.2.2.2.2.2.2.2.2.2.2.2.2.2.2.2.2.2.2.2.2.2.2.2.2.2.> * * o * * % o * o % * * * o       ",
"      *   * % * o % * * o % * * * v 2.2.2.2.2.2.2.2.2.2.2.2.2.2.2.2.2.2.2.2.2.2.2.2.2.2.2.2.9 * * % o % * * * % o % *   *       ",
"      *   * * * * o * o * o * o * D 2.2.2.2.2.2.2.2.2.2.2.2.2.2.2.2.2.2.2.2.2.2.2.2.2.2.2.2.q * % * * * % o % * * * *   *       ",
"      *   * % o * % * % * % * % * L 2.2.2.2.2.2.2.2.2.2.2.2.2.2.2.2.2.2.2.2.2.2.2.2.2.2.2.2.p * o * o % * * o * o % *   *       ",
"      *   % o % o % o % o % o % o K 2.2.2.2.2.T * * * * * * * * * * o * * * * % * % o % o * * % o % o * * % o % o * *   *       ",
"      *   * * * * * * * * * * * * V 2.2.2.2.2./ % o % o % o % o * * % * % o * o * o * * % * * o * * % * * o * * % * *   *       ",
"      *   * o * * % o * * % o * * z 2.2.2.2.2.| o * * % o * * % * * * * o % * % * % * * o % o % * * o * * % * * o % o   *       ",
"      o % * % * * o % * * o % * * y 2.2.2.2.2.2.> * * o % * * o % o % o * * * o * * * o * * * * % o % * * o % o * * * % o       ",
"      * * . * * * * * % o * * * * > >.2.2.2.2.2.s * * * * % o % % * % * * * * % s S S S S S y % o * * % o * * % * % . * *       ",
"      * * * % o % o * o % * % o * * ^ 2.2.2.2.2.' * * % * o * * o * o * % o * o ` 2.2.2.2.2.s * % * * o % * * o % * * * *       ",
"        *   o % o % * % o * o % * * s 2.2.2.2.2.2.f % * * % * * * * % o % * * 4 >.2.2.2.2.*.> * o % o % o % o % o *   *         ",
"        *   * * * * * o % * * * * o . { 2.2.2.2.2.*.e % * o % * o % * % * * * E 2.2.2.2.2.L % * * * * * * * * * % *   *         ",
"        * * * * o * * * * % o * % o * 0 >.2.2.2.2.2.=.M > o * * * o * * o > L 2.2.2.2.2.-.6 * % o % o % o % o % o % * *         ",
"        * *   % % * % o * o % * * * o % k 2.2.2.2.2.2.2.#.S y 2 * % 4 q V +.2.2.2.2.2.2.N * * * * * * * * * * * *   * *         ",
"          *   * o * o % * * * * % * % * * v 2.2.2.2.2.2.2.2.2.2.>.2.2.2.2.2.2.2.2.2.2.^ * * * o * % o * * % o * *   *           ",
"          * o % % * * * % o % o o * o * * o p $.2.2.2.2.2.2.2.2.2.2.2.2.2.2.2.2.2.2.T > o % * % * o % * * o % * . * %           ",
"            *   * % * * o % o % o % o % * * * 4 Y >.2.2.2.2.2.2.2.2.2.2.2.2.2.2.$.j * * % o * * * * * % % o * *   *             ",
"            * * * * % o * * * * * * * * * * * * * 6 +.2.2.2.2.2.2.2.2.2.2.2.{ k > * o % * * o % % o * o * * *   * *             ",
"              *   o o % * % o * * % o * o % * % o * | 2.2.X.v D U L X.2.2.+.o * * * * * % * % * o % * % % o * * *               ",
"              * *   * * * o % * * o % * * * % * o o { 2.2.` * * o o ^ 2.2.+.o * * * * % o * o * * * * o * *   * *               ",
"                * % * * * * % o o * * * * % o * * * { 2.2.` o * * o ^ 2.2.O.* o * o * o * o * o * * * % *   * o                 ",
"                  o o * * % * * % * % o * o % * % o { 2.2.` o * * % ^ 2.2.X.* % * % * % * % * % % o * o o o *                   ",
"                  * *   % * % o o * o % * * * * o % M J H c o % % o k J J V * * % o * * % o * * o % * % * % *                   ",
"                    % o   % * * % * * * % o % o * * * * % * * * * * * * * * o % * * o % * * o % * * *   * *                     ",
"                      * *   * * * % * * * o * o * % o * * % o * % * % o * * % * % * % o * * % * * . * * %                       ",
"                        % o *   * * % o * % * % * o % * * o % * o * * * o % o * o * * * o % o * o o * *                         ",
"                          * * %   * * o % o * * * * * * * * * * * o % o * * * o * o % o * * *   * * *                           ",
"                              % * * * % * * o % % o % o % o % o * % * * o % * % * % * * *     * *                               ",
"                                * * *   % o * * * o % * o % o % % o * % o % o * * * % .   * * *                                 ",
"                                    % * *     * * % * % * * * * * * * * * * % * %     * o %                                     ",
"                                        % * * o     * * * % * * % * * o * %     * * * *                                         ",
"                                            o * * * * o *             % o * * * * *                                             ",
"                                                    * % * * * * * * * * * *                                                     ",
"                                                                                                                                ",
"                                                                                                                                ",
"                                                                                                                                "
};
