/* XPM */
static char *aa00a5316cc942eca3b814502eb66b523mBEbqkdDkkLF10N[] = {
/* columns rows colors chars-per-pixel */
"16 16 48 1 ",
"  c None",
". c #5CB3FF",
"X c #5DB3FF",
"o c #5EB3FF",
"O c #5DB4FF",
"+ c #5CB5FF",
"@ c #5DB5FF",
"# c #5EB4FF",
"$ c #5FB4FF",
"% c #5EB5FF",
"& c #60B5FF",
"* c #65B8FF",
"= c #6ABAFF",
"- c #7DC3FF",
"; c #88C8FF",
": c #89C8FF",
"> c #8BC9FF",
", c #8CCAFF",
"< c #8FCBFF",
"1 c #90CCFF",
"2 c #93CDFF",
"3 c #95CEFF",
"4 c #A0D3FF",
"5 c #AED9FF",
"6 c #AFDAFF",
"7 c #B0DBFF",
"8 c #B2DBFF",
"9 c #B3DBFF",
"0 c #B3DCFF",
"q c #BEE1FF",
"w c #C1E2FF",
"e c #C2E3FF",
"r c #C3E3FF",
"t c #C7E5FF",
"y c #C8E6FF",
"u c #CAE7FF",
"i c #CCE7FF",
"p c #D0E9FF",
"a c #D1E9FF",
"s c #D8EDFF",
"d c #E1F1FF",
"f c #E6F3FF",
"g c #ECF6FF",
"h c #EFF7FF",
"j c #F2F9FF",
"k c #F9FCFF",
"l c #FAFDFF",
"z c white",
/* pixels */
"                ",
"     &@@@.@     ",
"   @@..@..@.@   ",
"  @..@,::,.@.@  ",
"  @.@.0isr@..@  ",
" @.&&uj79ha&&.@ ",
" .@.2z-..-z1.@. ",
" ..@qzzzzzz5&.@ ",
" @.@qk@.@.@.@.@ ",
" .@.2z1.@*f4.&. ",
" @.@&ulw7dg=&.@ ",
"  .@..7iar*..@  ",
"  ..@.,::,&...  ",
"   .@..@.@.@&   ",
"     &.@@.@     ",
"                "
};
