/* XPM */
static char *_09c69a82d044a3bf9cf55a83df12492dKwk5fiVXFnhZbDl[] = {
/* columns rows colors chars-per-pixel */
"32 32 79 1 ",
"  c None",
". c #5CB3FF",
"X c #5DB3FF",
"o c #5EB3FF",
"O c #5FB3FF",
"+ c #5BB5FF",
"@ c #5CB4FF",
"# c #5DB4FF",
"$ c #5CB5FF",
"% c #5DB5FF",
"& c #5EB4FF",
"* c #5EB5FF",
"= c #5DB6FF",
"- c #5EB6FF",
"; c #60B5FF",
": c #61B6FF",
"> c #63B7FF",
", c #65B8FF",
"< c #66B8FF",
"1 c #67B8FF",
"2 c #68B9FF",
"3 c #6ABAFF",
"4 c #6BBAFF",
"5 c #6CBBFF",
"6 c #6DBBFF",
"7 c #6FBCFF",
"8 c #73BEFF",
"9 c #74BFFF",
"0 c #75BFFF",
"q c #76C0FF",
"w c #7CC2FF",
"e c #7EC3FF",
"r c #81C4FF",
"t c #82C5FF",
"y c #83C6FF",
"u c #84C6FF",
"i c #85C7FF",
"p c #86C7FF",
"a c #88C8FF",
"s c #8FCBFF",
"d c #94CDFF",
"f c #98CFFF",
"g c #99D0FF",
"h c #A0D3FF",
"j c #A8D7FF",
"k c #A9D7FF",
"l c #ABD8FF",
"z c #ACD9FF",
"x c #B0DBFF",
"c c #BADFFF",
"v c #BEE1FF",
"b c #C5E4FF",
"n c #C8E5FF",
"m c #CBE7FF",
"M c #D4EBFF",
"N c #DBEFFF",
"B c #DCEFFF",
"V c #DFF0FF",
"C c #E1F1FF",
"Z c #E2F2FF",
"A c #E3F2FF",
"S c #E4F3FF",
"D c #E6F3FF",
"F c #E8F4FF",
"G c #E9F5FF",
"H c #EAF5FF",
"J c #EBF6FF",
"K c #ECF6FF",
"L c #EDF7FF",
"P c #EEF7FF",
"I c #F1F9FF",
"U c #F2F9FF",
"Y c #F3FAFF",
"T c #F4FAFF",
"R c #F5FBFF",
"E c #FDFEFF",
"W c #FEFEFF",
"Q c #FEFFFF",
"! c white",
/* pixels */
"                                ",
"               ##               ",
"           #X########           ",
"         ###########=##         ",
"       XX##############=#       ",
"      X#################:#      ",
"     ########ir##ry########     ",
"    #######XXYAX#HL#########    ",
"    #########YFiiKL#########    ",
"   ########:jY!!!!!z<########   ",
"   X######5V!!!TY!!!Fq#######   ",
"  #######:V!!m8##3c!!H<#######  ",
"  #######j!!b######v!!l#######  ",
"  #######H!!9######w!!A#######  ",
"  ######9!!!!!!!!!!!!!!:######  ",
" #######i!!!!!!!!!!!!!!8####### ",
" X######i!!A#################X# ",
"  X#####9!!Y#################+  ",
"  +X#####K!!i#######bMM7######  ",
"  +######z!!A<#####e!!A######X  ",
"  #######>A!!Dd3#5dY!!g######X  ",
"   #######3N!!!!!!!!!c######X   ",
"   #######X:hL!!!!!Ns########   ",
"    #######X#LHraHYXX#######    ",
"    #########LH##AY#########    ",
"     ########rr##ri########     ",
"      ####################      ",
"       ##################       ",
"         #XX#########X#         ",
"           ######X+##           ",
"               ##               ",
"                                "
};
